<svg xmlns="http://www.w3.org/2000/svg" width="1200" height="800" viewBox="0 0 1200 800" role="img" aria-label="EMBER COFFEE HOUSE studio concept">
  <rect width="1200" height="800" fill="#f5efe8"/>
  <rect x="80" y="120" width="1040" height="560" rx="40" fill="#f1e8dd" stroke="#e0d4c7" stroke-width="2"/>
  <!-- Mark -->
  <circle cx="220" cy="320" r="64" stroke="#3b2f2a" stroke-width="10" fill="none"/>
  <path d="M180 340h80" stroke="#3b2f2a" stroke-width="10" stroke-linecap="round"/>
  <!-- Wordmark (custom shapes) -->
  <g fill="#3b2f2a" transform="translate(320 250) scale(1.2)">
    <rect x="0" y="0" width="18" height="120" />
    <rect x="0" y="0" width="72" height="18" />
    <rect x="0" y="51" width="60" height="18" />
    <rect x="0" y="102" width="72" height="18" />
    <rect x="110" y="0" width="18" height="120" />
    <rect x="188" y="0" width="18" height="120" />
    <polygon points="128,0 146,0 168,60 150,60" />
    <polygon points="168,60 186,0 204,0 186,60" />
    <rect x="240" y="0" width="18" height="120" />
    <rect x="240" y="0" width="70" height="18" />
    <rect x="240" y="51" width="70" height="18" />
    <rect x="240" y="102" width="70" height="18" />
    <rect x="292" y="18" width="18" height="33" />
    <rect x="292" y="69" width="18" height="33" />
    <rect x="340" y="0" width="18" height="120" />
    <rect x="340" y="0" width="72" height="18" />
    <rect x="340" y="51" width="60" height="18" />
    <rect x="340" y="102" width="72" height="18" />
    <rect x="450" y="0" width="18" height="120" />
    <rect x="450" y="0" width="70" height="18" />
    <rect x="450" y="51" width="70" height="18" />
    <rect x="502" y="18" width="18" height="33" />
    <polygon points="468,72 520,120 494,120 452,84" />
  </g>
  <rect x="320" y="420" width="280" height="12" rx="6" fill="#c97c4b" opacity="0.8"/>
  <rect x="320" y="450" width="200" height="10" rx="5" fill="#b3886b" opacity="0.6"/>
</svg>
