<svg xmlns="http://www.w3.org/2000/svg" width="1200" height="800" viewBox="0 0 1200 800" role="img" aria-label="Flat Burger urban typographic poster">
  <defs>
    <linearGradient id="bg" x1="0" y1="0" x2="1" y2="1">
      <stop offset="0" stop-color="#090c14"/>
      <stop offset="1" stop-color="#121a2b"/>
    </linearGradient>
    <linearGradient id="accent" x1="0" y1="0" x2="1" y2="0">
      <stop offset="0" stop-color="#1c33c3"/>
      <stop offset="1" stop-color="#2b48ff"/>
    </linearGradient>
    <pattern id="grid" width="60" height="60" patternUnits="userSpaceOnUse">
      <path d="M60 0H0V60" fill="none" stroke="#ffffff" stroke-opacity="0.06" stroke-width="1"/>
    </pattern>
    <pattern id="dots" width="12" height="12" patternUnits="userSpaceOnUse">
      <circle cx="2" cy="2" r="1.5" fill="#ffffff" opacity="0.08"/>
    </pattern>
  </defs>

  <rect width="1200" height="800" fill="#feebcb"/>
  <rect width="1200" height="800" fill="url(#grid)"/>
  <rect x="0" y="0" width="1200" height="800" fill="url(#dots)"/>

  <g transform="translate(120 340)">
    <g transform="translate(0 -40)">
      <rect x="0" y="0" width="120" height="120" rx="18" fill="#1c33c3"/>
      <g transform="translate(18 28)" stroke="#feebcb" stroke-width="8" stroke-linecap="round">
        <path d="M10 12h72"/>
        <path d="M6 36c10 14 68 14 78 0"/>
        <path d="M10 64h72"/>
        <path d="M14 88c18 10 54 10 72 0"/>
      </g>
    </g>
    <text x="150" y="52" font-family="Bricolage Grotesque, Space Grotesk, sans-serif" font-size="120" fill="#1c33c3" font-weight="900" letter-spacing="4">FLAT BURGER</text>
  </g>

  <g transform="translate(120 520)">
    <rect x="0" y="0" width="640" height="14" fill="#1c33c3"/>
    <rect x="0" y="28" width="420" height="4" fill="#1c33c3" opacity="0.25"/>
  </g>

  <g opacity="0.2">
    <path d="M900 190l190 80-80 190-190-80z" fill="#1c33c3"/>
    <path d="M760 600l220 -60 60 220 -220 60z" fill="#2b48ff"/>
  </g>
</svg>
