<svg xmlns="http://www.w3.org/2000/svg" width="1200" height="800" viewBox="0 0 1200 800" role="img" aria-label="Flat Burger urban typographic poster">
  <defs>
    <linearGradient id="bg" x1="0" y1="0" x2="1" y2="1">
      <stop offset="0" stop-color="#090c14"/>
      <stop offset="1" stop-color="#121a2b"/>
    </linearGradient>
    <linearGradient id="accent" x1="0" y1="0" x2="1" y2="0">
      <stop offset="0" stop-color="#1c33c3"/>
      <stop offset="1" stop-color="#2b48ff"/>
    </linearGradient>
    <pattern id="grid" width="60" height="60" patternUnits="userSpaceOnUse">
      <path d="M60 0H0V60" fill="none" stroke="#ffffff" stroke-opacity="0.06" stroke-width="1"/>
    </pattern>
    <pattern id="dots" width="12" height="12" patternUnits="userSpaceOnUse">
      <circle cx="2" cy="2" r="1.5" fill="#ffffff" opacity="0.08"/>
    </pattern>
  </defs>

  <rect width="1200" height="800" fill="url(#bg)"/>
  <rect width="1200" height="800" fill="url(#grid)"/>
  <rect x="0" y="0" width="1200" height="800" fill="url(#dots)"/>

  <g opacity="0.9">
    <rect x="70" y="70" width="200" height="42" rx="21" fill="#1c33c3"/>
    <text x="95" y="99" font-family="Bricolage Grotesque, Space Grotesk, sans-serif" font-size="18" fill="#f8f8f8" letter-spacing="3">BRAND BUILDING</text>
  </g>

  <g transform="translate(860 70)">
    <circle cx="70" cy="70" r="62" fill="none" stroke="#f8f8f8" stroke-opacity="0.2" stroke-width="2"/>
    <text x="70" y="80" text-anchor="middle" font-family="Bricolage Grotesque, Space Grotesk, sans-serif" font-size="22" fill="#f8f8f8" letter-spacing="2">2024</text>
  </g>

  <g transform="translate(120 210)">
    <text x="0" y="0" font-family="Bricolage Grotesque, Space Grotesk, sans-serif" font-size="110" fill="#f8f8f8" font-weight="800" letter-spacing="6">FLAT</text>
    <text x="0" y="135" font-family="Bricolage Grotesque, Space Grotesk, sans-serif" font-size="150" fill="url(#accent)" font-weight="900" letter-spacing="6">BURGER</text>
    <text x="0" y="185" font-family="Space Grotesk, sans-serif" font-size="24" fill="#f8f8f8" opacity="0.7" letter-spacing="8">STREET EDITION</text>
  </g>

  <g transform="translate(120 470)" fill="#f8f8f8" opacity="0.8">
    <text x="0" y="0" font-family="Space Grotesk, sans-serif" font-size="20" letter-spacing="6">BELGRADE STREET FOOD</text>
    <rect x="0" y="18" width="420" height="4" fill="#f8f8f8" opacity="0.2"/>
  </g>

  <g transform="translate(120 540)" fill="#f8f8f8" opacity="0.7">
    <text x="0" y="0" font-family="Space Grotesk, sans-serif" font-size="18">Identity / Visual Direction / Social Content</text>
  </g>

  <g transform="translate(120 640)">
    <rect x="0" y="0" width="560" height="10" fill="url(#accent)"/>
    <rect x="0" y="24" width="380" height="3" fill="#f8f8f8" opacity="0.3"/>
    <rect x="0" y="34" width="300" height="3" fill="#f8f8f8" opacity="0.2"/>
  </g>

  <g opacity="0.18">
    <path d="M910 240l170 70-70 170-170-70z" fill="#1c33c3"/>
    <path d="M760 600l200 -50 50 200 -200 50z" fill="#2b48ff"/>
  </g>
</svg>
