<svg xmlns="http://www.w3.org/2000/svg" width="1200" height="800" viewBox="0 0 1200 800" role="img" aria-label="Flat Burger urban typographic poster">
  <defs>
    <linearGradient id="bg" x1="0" y1="0" x2="1" y2="1">
      <stop offset="0" stop-color="#0b0f1a"/>
      <stop offset="1" stop-color="#0f1b2e"/>
    </linearGradient>
    <linearGradient id="accent" x1="0" y1="0" x2="1" y2="0">
      <stop offset="0" stop-color="#1c33c3"/>
      <stop offset="1" stop-color="#5fa8ff"/>
    </linearGradient>
    <pattern id="grid" width="80" height="80" patternUnits="userSpaceOnUse">
      <path d="M80 0H0V80" fill="none" stroke="#ffffff" stroke-opacity="0.05" stroke-width="1"/>
    </pattern>
    <pattern id="dots" width="12" height="12" patternUnits="userSpaceOnUse">
      <circle cx="2" cy="2" r="1.5" fill="#ffffff" opacity="0.08"/>
    </pattern>
  </defs>

  <rect width="1200" height="800" fill="url(#bg)"/>
  <rect width="1200" height="800" fill="url(#grid)"/>
  <rect x="0" y="0" width="1200" height="800" fill="url(#dots)"/>

  <g opacity="0.9">
    <rect x="70" y="70" width="200" height="42" rx="21" fill="#1c33c3"/>
    <text x="95" y="99" font-family="Bricolage Grotesque, Space Grotesk, sans-serif" font-size="18" fill="#f8f8f8" letter-spacing="3">BRAND BUILDING</text>
  </g>

  <g transform="translate(860 70)">
    <circle cx="70" cy="70" r="62" fill="none" stroke="#f8f8f8" stroke-opacity="0.2" stroke-width="2"/>
    <text x="70" y="80" text-anchor="middle" font-family="Bricolage Grotesque, Space Grotesk, sans-serif" font-size="22" fill="#f8f8f8" letter-spacing="2">2024</text>
  </g>

  <g transform="translate(120 210)">
    <text x="0" y="0" font-family="Bricolage Grotesque, Space Grotesk, sans-serif" font-size="120" fill="#f8f8f8" font-weight="800" letter-spacing="2">FLAT</text>
    <text x="0" y="130" font-family="Bricolage Grotesque, Space Grotesk, sans-serif" font-size="140" fill="url(#accent)" font-weight="900" letter-spacing="2">BURGER</text>
  </g>

  <g transform="translate(120 450)" fill="#f8f8f8" opacity="0.8">
    <text x="0" y="0" font-family="Space Grotesk, sans-serif" font-size="22" letter-spacing="4">BELGRADE STREET FOOD</text>
    <rect x="0" y="18" width="420" height="4" fill="#f8f8f8" opacity="0.2"/>
  </g>

  <g transform="translate(120 540)" fill="#f8f8f8" opacity="0.7">
    <text x="0" y="0" font-family="Space Grotesk, sans-serif" font-size="18">Identity / Visual Direction / Social Content</text>
  </g>

  <g transform="translate(930 520)">
    <rect x="0" y="0" width="200" height="200" rx="18" fill="rgba(255,255,255,0.04)" stroke="rgba(255,255,255,0.12)"/>
    <g transform="translate(45 55)" stroke="#f8f8f8" stroke-width="6" stroke-linecap="round">
      <path d="M10 10h90"/>
      <path d="M5 35c10 12 90 12 100 0"/>
      <path d="M10 65h90"/>
      <path d="M15 95c18 10 72 10 90 0"/>
    </g>
    <text x="100" y="175" text-anchor="middle" font-family="Bricolage Grotesque, Space Grotesk, sans-serif" font-size="16" fill="#f8f8f8" letter-spacing="2">LOGO</text>
  </g>

  <g transform="translate(120 640)">
    <rect x="0" y="0" width="520" height="8" fill="url(#accent)"/>
    <rect x="0" y="20" width="360" height="3" fill="#f8f8f8" opacity="0.3"/>
    <rect x="0" y="30" width="300" height="3" fill="#f8f8f8" opacity="0.2"/>
  </g>

  <g opacity="0.15">
    <path d="M980 210l140 60-60 140-140-60z" fill="#1c33c3"/>
    <path d="M780 620l180 -40 40 180 -180 40z" fill="#5fa8ff"/>
  </g>
</svg>
