<svg xmlns="http://www.w3.org/2000/svg" width="1200" height="800" viewBox="0 0 1200 800" role="img" aria-label="PULSE campaign system studio concept">
  <rect width="1200" height="800" fill="#0b0b14"/>
  <g fill="#f8fafc" transform="translate(160 120) scale(1.1)">
    <rect x="0" y="0" width="18" height="120" />
    <rect x="0" y="0" width="70" height="18" />
    <rect x="0" y="51" width="70" height="18" />
    <rect x="52" y="18" width="18" height="33" />
    <rect x="120" y="0" width="18" height="90" />
    <rect x="172" y="0" width="18" height="90" />
    <rect x="120" y="90" width="70" height="18" />
    <rect x="240" y="0" width="18" height="120" />
    <rect x="240" y="102" width="70" height="18" />
    <rect x="340" y="0" width="70" height="18" />
    <rect x="340" y="51" width="70" height="18" />
    <rect x="340" y="102" width="70" height="18" />
    <rect x="340" y="18" width="18" height="33" />
    <rect x="392" y="69" width="18" height="33" />
    <rect x="440" y="0" width="18" height="120" />
    <rect x="440" y="0" width="70" height="18" />
    <rect x="440" y="51" width="60" height="18" />
    <rect x="440" y="102" width="70" height="18" />
  </g>
  <path d="M160 260h90l36-60 46 120 46-84 36 28h540" stroke="#f8fafc" stroke-width="10" stroke-linecap="round" stroke-linejoin="round" fill="none"/>
  <rect x="120" y="360" width="240" height="240" fill="#f43f5e"/>
  <rect x="380" y="360" width="240" height="240" fill="#f97316"/>
  <rect x="640" y="360" width="240" height="240" fill="#22c55e"/>
  <rect x="900" y="360" width="180" height="240" fill="#3b82f6"/>
</svg>
